<svg width="32" height="32" viewBox="0 0 32 32" fill="none" xmlns="http://www.w3.org/2000/svg">
<g opacity="0.66">
<path d="M18.1004 18.4516V28.8582H13.1296V18.4516H9V14.2319H13.1296V12.6967C13.1296 6.99695 15.6054 4 20.8439 4C22.4498 4 22.8513 4.24821 23.7308 4.45046V8.62414C22.7462 8.45866 22.469 8.36673 21.4461 8.36673C20.2321 8.36673 19.5821 8.69768 18.9894 9.35039C18.3967 10.0031 18.1004 11.1339 18.1004 12.7518V14.2411H23.7308L22.2204 18.4608H18.1004V18.4516Z" stroke="#0B253B"/>
<path d="M18.1004 18.4516V28.8582H13.1296V18.4516H9V14.2319H13.1296V12.6967C13.1296 6.99695 15.6054 4 20.8439 4C22.4498 4 22.8513 4.24821 23.7308 4.45046V8.62414C22.7462 8.45866 22.469 8.36673 21.4461 8.36673C20.2321 8.36673 19.5821 8.69768 18.9894 9.35039C18.3967 10.0031 18.1004 11.1339 18.1004 12.7518V14.2411H23.7308L22.2204 18.4608H18.1004V18.4516Z" stroke="black" stroke-opacity="0.2"/>
</g>
</svg>
