<svg width="32" height="32" viewBox="0 0 32 32" fill="none" xmlns="http://www.w3.org/2000/svg">
<g opacity="0.66">
<path d="M23.4885 26.5752H9.12574C7.141 26.5752 5.51953 24.9537 5.51953 22.969V8.6062C5.51953 6.62146 7.141 5 9.12574 5H23.4885C25.4733 5 27.0947 6.62146 27.0947 8.6062V22.969C27.0947 24.9626 25.4821 26.5752 23.4885 26.5752Z" stroke="#0B253B"/>
<path d="M23.4885 26.5752H9.12574C7.141 26.5752 5.51953 24.9537 5.51953 22.969V8.6062C5.51953 6.62146 7.141 5 9.12574 5H23.4885C25.4733 5 27.0947 6.62146 27.0947 8.6062V22.969C27.0947 24.9626 25.4821 26.5752 23.4885 26.5752Z" stroke="black" stroke-opacity="0.2"/>
<path d="M12.3949 19.7119C13.4404 20.7574 14.8315 21.3334 16.3112 21.3334C17.7909 21.3334 19.1731 20.7574 20.2275 19.7119C21.2731 18.6664 21.849 17.2753 21.849 15.7956C21.849 14.3159 21.2731 12.9248 20.2275 11.8793C19.182 10.8337 17.7909 10.2578 16.3112 10.2578C14.8315 10.2578 13.4404 10.8337 12.3949 11.8793C11.3494 12.9248 10.7734 14.3159 10.7734 15.7956C10.7734 17.2753 11.3494 18.6664 12.3949 19.7119Z" stroke="#0B253B"/>
<path d="M12.3949 19.7119C13.4404 20.7574 14.8315 21.3334 16.3112 21.3334C17.7909 21.3334 19.1731 20.7574 20.2275 19.7119C21.2731 18.6664 21.849 17.2753 21.849 15.7956C21.849 14.3159 21.2731 12.9248 20.2275 11.8793C19.182 10.8337 17.7909 10.2578 16.3112 10.2578C14.8315 10.2578 13.4404 10.8337 12.3949 11.8793C11.3494 12.9248 10.7734 14.3159 10.7734 15.7956C10.7734 17.2753 11.3494 18.6664 12.3949 19.7119Z" stroke="black" stroke-opacity="0.2"/>
<path d="M22.9266 10.0758C23.5138 10.0758 23.9898 9.59973 23.9898 9.0125C23.9898 8.42527 23.5138 7.94922 22.9266 7.94922C22.3393 7.94922 21.8633 8.42527 21.8633 9.0125C21.8633 9.59973 22.3393 10.0758 22.9266 10.0758Z" stroke="#0B253B"/>
<path d="M22.9266 10.0758C23.5138 10.0758 23.9898 9.59973 23.9898 9.0125C23.9898 8.42527 23.5138 7.94922 22.9266 7.94922C22.3393 7.94922 21.8633 8.42527 21.8633 9.0125C21.8633 9.59973 22.3393 10.0758 22.9266 10.0758Z" stroke="black" stroke-opacity="0.2"/>
</g>
</svg>
