<svg width="32" height="32" viewBox="0 0 32 32" fill="none" xmlns="http://www.w3.org/2000/svg">
<g opacity="0.66">
<path d="M9.52526 11.2793H4.26562V28.0519H9.52526V11.2793Z" stroke="#0B253B"/>
<path d="M9.52526 11.2793H4.26562V28.0519H9.52526V11.2793Z" stroke="black" stroke-opacity="0.2"/>
<path d="M23.7517 10.9099C23.5578 10.8857 23.3518 10.8736 23.1458 10.8615C20.2009 10.7403 18.5406 12.4854 17.9589 13.2368C17.8013 13.4428 17.7286 13.564 17.7286 13.564V11.322H12.6992V28.0946H17.7286H17.9589C17.9589 26.3859 17.9589 24.6892 17.9589 22.9804C17.9589 22.0594 17.9589 21.1384 17.9589 20.2173C17.9589 19.0781 17.874 17.8662 18.4436 16.824C18.9284 15.9514 19.8009 15.5152 20.7826 15.5152C23.6911 15.5152 23.7517 18.145 23.7517 18.3873C23.7517 18.3995 23.7517 18.4116 23.7517 18.4116V28.1674H29.0113V17.2239C29.0113 13.4792 27.1087 11.2735 23.7517 10.9099Z" stroke="#0B253B"/>
<path d="M23.7517 10.9099C23.5578 10.8857 23.3518 10.8736 23.1458 10.8615C20.2009 10.7403 18.5406 12.4854 17.9589 13.2368C17.8013 13.4428 17.7286 13.564 17.7286 13.564V11.322H12.6992V28.0946H17.7286H17.9589C17.9589 26.3859 17.9589 24.6892 17.9589 22.9804C17.9589 22.0594 17.9589 21.1384 17.9589 20.2173C17.9589 19.0781 17.874 17.8662 18.4436 16.824C18.9284 15.9514 19.8009 15.5152 20.7826 15.5152C23.6911 15.5152 23.7517 18.145 23.7517 18.3873C23.7517 18.3995 23.7517 18.4116 23.7517 18.4116V28.1674H29.0113V17.2239C29.0113 13.4792 27.1087 11.2735 23.7517 10.9099Z" stroke="black" stroke-opacity="0.2"/>
<path d="M6.89382 9.10796C8.58048 9.10796 9.9478 7.74064 9.9478 6.05398C9.9478 4.36731 8.58048 3 6.89382 3C5.20715 3 3.83984 4.36731 3.83984 6.05398C3.83984 7.74064 5.20715 9.10796 6.89382 9.10796Z" stroke="#0B253B"/>
<path d="M6.89382 9.10796C8.58048 9.10796 9.9478 7.74064 9.9478 6.05398C9.9478 4.36731 8.58048 3 6.89382 3C5.20715 3 3.83984 4.36731 3.83984 6.05398C3.83984 7.74064 5.20715 9.10796 6.89382 9.10796Z" stroke="black" stroke-opacity="0.2"/>
</g>
</svg>
