<svg width="26" height="22" viewBox="0 0 26 22" fill="none" xmlns="http://www.w3.org/2000/svg">
<g opacity="0.66" clip-path="url(#clip0_1_5115)">
<path d="M24.8725 0.00664772C22.3452 0.00664772 19.8178 0.00664772 17.2904 0.00664772C16.6082 0.00664772 16.4013 0.209784 16.4013 0.875571C16.4013 3.0114 16.4013 5.1464 16.4013 7.28223V8.82689C14.2746 5.96972 12.2174 3.21288 10.1715 0.448572C9.94035 0.13682 9.67875 -0.00164354 9.27374 1.47113e-05C6.74637 0.0124516 4.21899 0.00581859 1.69075 0.00664772C1.02414 0.00664772 0.800781 0.2131 0.800781 0.834115C0.800781 7.55749 0.800781 14.2809 0.800781 21.0051C0.800781 21.6261 1.02414 21.8334 1.68988 21.8334C4.20248 21.8334 6.71595 21.8334 9.22855 21.8334C9.95165 21.8334 10.1594 21.6385 10.1594 20.9611C10.1594 18.4812 10.1594 16.0013 10.162 13.5206C10.162 13.3829 10.1194 13.2329 10.2159 13.0861C12.2861 15.8678 14.3433 18.623 16.3883 21.3873C16.6186 21.6991 16.8776 21.8417 17.2835 21.8392C19.8256 21.8267 22.3669 21.8334 24.9091 21.8326C25.5331 21.8326 25.759 21.6128 25.759 21.0076C25.759 14.2842 25.759 7.55998 25.759 0.836603C25.759 0.214758 25.5357 0.00664772 24.8717 0.00664772H24.8725ZM23.9834 20.5184C21.9332 20.5026 19.883 20.5051 17.8319 20.5167C17.5581 20.5184 17.3956 20.4454 17.2339 20.2265C14.876 17.0336 12.5042 13.8506 10.1411 10.6609C9.90733 10.3458 9.62573 10.1626 9.22855 10.2944C8.87048 10.413 8.76792 10.6974 8.76879 11.0523C8.77661 14.0554 8.76445 17.0584 8.78443 20.0615C8.78704 20.4471 8.67145 20.5242 8.29078 20.5209C6.38482 20.5018 4.47886 20.5026 2.5729 20.5209C2.23829 20.5242 2.17919 20.4338 2.18006 20.1345C2.18962 13.9907 2.19049 7.84686 2.18006 1.70304C2.18006 1.39377 2.25654 1.31998 2.57898 1.32247C4.62922 1.33822 6.67945 1.33574 8.73055 1.32413C9.00432 1.32247 9.16597 1.3946 9.3285 1.61515C11.6855 4.80729 14.0573 7.9903 16.4196 11.1791C16.6525 11.4942 16.9341 11.6791 17.3321 11.5472C17.6893 11.4287 17.7945 11.146 17.7936 10.7903C17.7858 7.80126 17.7997 4.81143 17.7771 1.82243C17.7736 1.39792 17.891 1.31418 18.3151 1.31998C20.2063 1.34403 22.0983 1.33988 23.9895 1.32164C24.3224 1.31832 24.385 1.40621 24.3841 1.70718C24.3719 4.77909 24.3763 7.85101 24.3763 10.9229C24.3763 13.9948 24.3711 17.0667 24.3841 20.1386C24.3858 20.4471 24.3102 20.5225 23.9852 20.52L23.9834 20.5184Z" fill="#3D3D3D"/>
</g>
<defs>
<clipPath id="clip0_1_5115">
<rect width="24.96" height="21.84" fill="white" transform="translate(0.800781)"/>
</clipPath>
</defs>
</svg>
