<svg width="20" height="20" viewBox="0 0 20 20" fill="none" xmlns="http://www.w3.org/2000/svg">
<path fill-rule="evenodd" clip-rule="evenodd" d="M8.125 2.38792C4.8902 3.1142 2.5 5.6759 2.5 8.727V13.0903C2.5 13.4923 2.12572 13.8182 1.66754 13.8182C0.746581 13.8182 0 14.471 0 15.2727C0 16.0761 0.747522 16.7273 1.67079 16.7273H18.3292C19.252 16.7273 20 16.0744 20 15.2727C20 14.4694 19.2499 13.8182 18.3325 13.8182C17.8727 13.8182 17.5 13.4948 17.5 13.0903V8.727C17.5 5.67711 15.1103 3.11444 11.875 2.38795V1.63667C11.875 0.730636 11.0355 0 10 0C8.96657 0 8.125 0.732764 8.125 1.63667V2.38792ZM7.08333 17.4545H12.9167C12.9167 18.8604 11.6108 20 10 20C8.38917 20 7.08333 18.8604 7.08333 17.4545Z" fill="white"/>
</svg>
