<svg width="30" height="30" viewBox="0 0 30 30" fill="none" xmlns="http://www.w3.org/2000/svg">
<circle cx="15" cy="15" r="15" fill="#E62642"/>
<path d="M21.7223 20.4615L18.8524 17.7385C19.9226 16.6 20.5873 15.0923 20.5873 13.4462C20.5873 9.89231 17.5391 7 13.7937 7C10.0482 7 7 9.89231 7 13.4462C7 17 10.0482 19.8923 13.7937 19.8923C15.1232 19.8923 16.3555 19.5231 17.3932 18.9077L20.3765 21.7385C20.5549 21.9077 20.7981 22 21.0413 22C21.2845 22 21.5277 21.9077 21.7061 21.7385C22.0952 21.3846 22.0952 20.8154 21.7223 20.4615ZM8.89704 13.4462C8.89704 10.8923 11.0859 8.8 13.7937 8.8C16.5014 8.8 18.6741 10.8923 18.6741 13.4462C18.6741 16 16.4852 18.0923 13.7937 18.0923C11.1021 18.0923 8.89704 16.0154 8.89704 13.4462Z" fill="white"/>
</svg>
