<svg width="34" height="32" viewBox="0 0 34 32" fill="none" xmlns="http://www.w3.org/2000/svg">
<g opacity="0.66">
<path d="M27.8291 26.5752H6.25215C3.36509 26.5752 1.03906 24.0219 1.03906 20.8814V10.6938C1.03906 7.54051 3.37678 5 6.25215 5H27.8291C30.7162 5 33.0422 7.55328 33.0422 10.6938V20.8814C33.0539 24.0347 30.7162 26.5752 27.8291 26.5752Z" stroke="#0B253B"/>
<path d="M27.8291 26.5752H6.25215C3.36509 26.5752 1.03906 24.0219 1.03906 20.8814V10.6938C1.03906 7.54051 3.37678 5 6.25215 5H27.8291C30.7162 5 33.0422 7.55328 33.0422 10.6938V20.8814C33.0539 24.0347 30.7162 26.5752 27.8291 26.5752Z" stroke="black" stroke-opacity="0.2"/>
<path d="M22.7019 15.6288L13.625 10.3945V20.863L22.7019 15.6288Z" stroke="#0B253B"/>
<path d="M22.7019 15.6288L13.625 10.3945V20.863L22.7019 15.6288Z" stroke="black" stroke-opacity="0.2"/>
</g>
</svg>
